<?xml version="1.0" encoding="UTF-8"?>
<svg id="Layer_2" data-name="Layer 2" xmlns="http://www.w3.org/2000/svg" viewBox="0 0 261.6 717.67">
  <defs>
    <style>
      .cls-1 {
        fill: none;
        stroke: #000;
        stroke-miterlimit: 10;
      }
    </style>
  </defs>
  <g id="Layer_1-2" data-name="Layer 1">
    <path class="cls-1" d="M.18,377.89c92.37-35.65,141.9-89.39,165.02-119.28C237.49,165.17,268.15,25.01,234.02,3.56c-10.45-6.57-24.97-.76-28.5.78-43.4,18.99-36.72,99.65-40.32,365.16-1.38,101.94-36.89,208.35-6.84,305.76,1.06,3.45,7.59,24.08-1.01,31.39-16.41,13.96-69.03-36.67-90.39-20.54-7.37,5.57-10.72,18.86-6.04,25.89,11.42,17.16,63.24-14.14,141.35-11.39,25.19.89,45.72,5.05,59.2,8.46"/>
  </g>
</svg>