<?xml version="1.0" encoding="UTF-8"?>
<svg id="Layer_2" data-name="Layer 2" xmlns="http://www.w3.org/2000/svg" viewBox="0 0 288.62 704.39">
  <defs>
    <style>
      .cls-1 {
        fill: none;
        stroke: #000;
        stroke-miterlimit: 10;
      }
    </style>
  </defs>
  <g id="Layer_2-2" data-name="Layer 2">
    <path class="cls-1" d="M39.8,128.34c-1.31-7.5-8.17-50.95,20.68-87.45C86.47,8.03,130.58-5.48,163.9,2.94c68.62,17.34,100.35,129.89,81.45,212.02-14.19,61.65-62.68,131.21-108.8,127.91-23.07-1.65-47.36-21.67-46.33-38.23,1.22-19.53,37.94-38.97,68.37-36.67,65.27,4.92,114.5,110.78,125.55,191.54,4.33,31.68,14.61,106.82-33.61,171.73-12.26,16.5-57.29,77.11-126.69,72.4-62.09-4.22-117-58.91-122.81-121.52-3.99-42.92,16.36-75.99,24.56-87.91"/>
  </g>
</svg>