<?xml version="1.0" encoding="UTF-8"?>
<svg id="Layer_2" data-name="Layer 2" xmlns="http://www.w3.org/2000/svg" viewBox="0 0 423.91 776.77">
  <defs>
    <style>
      .cls-1 {
        fill: none;
        stroke: #000;
        stroke-miterlimit: 10;
      }
    </style>
  </defs>
  <g id="Layer_2-2" data-name="Layer 2">
    <g>
      <path class="cls-1" d="M369.03,201.32c-10.17,30.44-23.34,74.95-33.42,129.84-8.62,46.95-13.54,92.78-16.23,169.09-2.46,69.66-3.05,163.38,3.97,276.49"/>
      <path class="cls-1" d="M124.72.13c6.38,23.11,14.83,56.07,22.85,96.06,8.33,41.55,18.76,93.52,21.35,147.29,2.03,42.2,9.55,198.45-72.93,262.4-10.14,7.86-35.83,27.7-62.06,20.05C16.93,520.97,0,504.33.51,486.64c.71-24.18,33.7-38.85,36.28-39.96,41.34-17.76,78.11,13.35,191.9,61.1,92.35,38.75,121.1,40.48,145.12,29.6,26.29-11.92,41.2-36.36,49.65-55.28"/>
    </g>
  </g>
</svg>