<?xml version="1.0" encoding="UTF-8"?>
<svg id="Layer_2" data-name="Layer 2" xmlns="http://www.w3.org/2000/svg" viewBox="0 0 285.77 717.14">
  <defs>
    <style>
      .cls-1 {
        fill: none;
        stroke: #000;
        stroke-miterlimit: 10;
      }
    </style>
  </defs>
  <g id="Layer_1-2" data-name="Layer 1">
    <path class="cls-1" d="M282.09,12.9c-23.1,18.37-59.28,42.2-108.16,56.15-6.44,1.84-132.23,36.54-163.48-11.56C.68,42.46-.86,17.79,10.45,7.12,19.97-1.86,38.62-.94,50.91,5.32c47.33,24.12,31.63,143.47,27.25,176.84-4.51,34.29-14.76,83.24-40.46,139.54,86.19-45.93,139.1-25.78,151.1-20.64,109.04,46.77,130.53,266.29,39.35,363.05-5.55,5.89-63.81,65.93-131,49.78C39.05,699.93,1.94,635.66.54,578.48c-.98-40.09,15.74-70.61,24.68-84.57"/>
  </g>
</svg>