<?xml version="1.0" encoding="UTF-8"?>
<svg id="Layer_2" data-name="Layer 2" xmlns="http://www.w3.org/2000/svg" viewBox="0 0 304 742.87">
  <defs>
    <style>
      .cls-1 {
        fill: none;
        stroke: #000;
        stroke-miterlimit: 10;
      }
    </style>
  </defs>
  <g id="Layer_1-2" data-name="Layer 1">
    <path class="cls-1" d="M217.43,108.46c-4.49-10.11-23.02-48.81-59.46-57.47-50.93-12.1-107.01,41.57-118.97,92.1-14.57,61.58,35.77,121.01,84.43,178.45,34.56,40.8,42.22,37.14,82.51,82.51,57.72,65,94.66,106.6,97.4,159.7,3.94,76.31-62.63,178.72-151.05,178.61-86.7-.11-152.88-98.72-151.76-174.31.97-65.64,54.13-119.44,160.46-227.03,64.94-65.72,100.12-88.1,117.47-147.26,5.68-19.36,24.58-83.82-12.58-138.62C241.93,19.84,206.36,5.71,190.18.48"/>
  </g>
</svg>