<svg width="185" height="96" viewBox="0 0 185 96" fill="none" xmlns="http://www.w3.org/2000/svg">
<g clip-path="url(#clip0_2026_462)">
<path d="M35.685 57.3175C29.7576 56.4973 24.2547 53.9695 19.274 50.73C17.0615 53.4115 14.2594 55.651 10.9351 56.7558C7.50944 57.8193 1.96148 58.1938 1.04871 53.6998C0.447716 49.1047 5.33833 45.5918 9.37253 44.6968C12.8696 43.8616 16.0211 45.9027 18.7969 47.7602C26.4672 37.8209 31.0573 26.0765 36.47 14.8677C29.8703 15.553 23.2143 16.7514 16.5695 16.0548C13.448 16.141 14.2181 13.1525 16.0586 13.7891C15.961 13.7217 15.8595 13.7105 15.7544 13.688C23.049 14.6692 30.3811 13.2236 37.6269 12.4409C39.5426 8.54982 41.3005 4.28798 44.7901 1.51666C47.0851 -0.153616 50.5784 -0.670429 52.9449 1.13093C56.795 3.92846 54.4361 9.5048 50.7475 11.2425C47.1603 13.1487 43.081 13.8041 39.1219 14.4932C33.4312 26.2076 28.6796 38.54 20.6976 48.9698C31.7785 56.5311 43.5843 56.752 56.2053 53.6699C57.2983 53.5725 59.0562 52.5389 59.5746 54.0294C59.7286 54.5949 59.3943 55.2802 58.7933 55.4113C51.1869 57.0628 43.4566 58.6994 35.685 57.3175ZM7.05869 55.1641C11.183 55.0368 14.8454 52.5651 17.3733 49.5054C15.3412 48.2471 13.2227 46.588 10.6947 46.7828C7.701 47.0487 4.75612 49.011 3.41514 51.6962C2.43101 54.1567 4.85378 55.5798 7.05869 55.1641ZM40.3089 12.0252C44.2078 11.1713 48.7228 10.7182 51.6227 7.6997C53.05 6.21292 53.1665 3.47531 51.0367 2.57651C45.2634 0.74519 42.4236 7.97308 40.3051 12.0215L40.3089 12.0252Z" fill="#4D3912"/>
<path d="M79.0959 46.674C74.8589 41.4347 83.8664 36.7909 88.4264 37.4426C89.8125 33.7275 90.5412 29.7877 90.5036 25.8217C84.4974 32.5066 77.9879 39.0716 69.7354 42.9403C62.8202 46.4231 54.9809 43.1912 58.4742 34.6488C54.1959 40.4273 43.9376 51.4976 36.7932 44.1274C35.0954 44.5918 27.6919 46.6928 27.7031 43.7679C27.7895 43.1837 28.353 42.6968 28.9652 42.8054C31.249 43.3784 33.7018 42.5957 35.9293 42.034C34.6634 36.4426 40.0536 26.1476 45.9171 25.0203C51.5026 24.7132 51.3261 32.2108 48.9822 35.5738C46.7773 39.2477 42.9647 41.6033 39.1146 43.281C44.3132 46.8613 50.9655 39.9405 54.2898 36.3191C59.0001 30.5143 63.3273 24.1028 67.5718 18.0171C68.7475 16.2682 69.9608 14.4519 71.1139 12.7479C71.929 11.8715 72.3497 9.95409 73.7433 9.99528C76.0158 10.6844 73.578 13.216 72.9845 14.4032C71.437 16.7176 69.8556 19.0507 68.308 21.3502C65.1453 26.4472 61.5994 31.5666 59.9955 37.4014C58.9851 41.255 62.7263 42.6818 65.9153 41.8767C70.1486 40.8018 73.8147 38.1653 77.2591 35.585C80.2679 33.2294 82.9235 30.709 85.489 27.9302C86.6572 26.6794 87.8217 25.421 88.9786 24.1627C89.5984 23.5523 90.1505 22.631 91.1084 22.5935C94.7144 22.4849 91.5704 35.9745 90.6088 37.9856C92.1676 38.3414 97.0395 42.4946 94.966 43.9851C94.4552 44.2847 93.719 44.1199 93.4335 43.5806C92.671 42.0527 91.4239 40.682 89.7899 40.0828C88.2987 44.0413 83.6785 50.0371 79.0884 46.674H79.0959ZM81.853 45.4007C84.7829 45.0112 86.3868 42.0602 87.5324 39.6409C84.828 39.7982 81.6239 40.888 80.328 43.4346C79.896 44.4832 80.7299 45.5618 81.853 45.4007ZM38.0553 41.2849C41.7702 39.6933 45.5528 37.4238 47.4422 33.72C48.9672 31.2183 48.6742 25.2076 44.501 27.9564C40.7786 30.8288 37.5294 36.525 38.0553 41.2849Z" fill="#4D3912"/>
<path d="M50.1541 22.586C48.986 22.4662 48.8545 20.6536 50.0076 20.3914C52.4567 20.1143 54.8569 19.5189 57.2835 19.0994C64.5142 17.7624 71.7412 16.3918 79.0283 15.4218C83.6184 14.8151 88.2123 14.2384 92.8137 13.7178C94.2411 13.5418 94.5791 15.7326 93.118 15.9461C78.6677 17.3055 64.4278 20.2117 50.1504 22.5898L50.1541 22.586Z" fill="#4D3912"/>
<path d="M76.6356 94.9701C68.2179 92.5545 75.2495 78.9189 77.2328 73.6422C79.2161 68.9272 81.8943 64.3695 82.5179 59.2164C82.8071 55.6361 80.4181 54.1119 77.462 56.3814C67.369 64.3957 61.9562 76.5521 53.5948 86.1019C48.6967 92.0115 42.3524 92.0003 44.794 82.8512C45.3612 80.548 46.2138 78.331 47.1416 76.1513C47.7276 74.0167 52.4943 66.3506 50.6011 64.9612C50.1654 64.774 49.5832 65.0511 49.2188 65.156C47.9041 65.523 46.736 66.3282 45.4551 66.7064C44.8428 66.7064 44.3357 66.1896 44.3357 65.5829C44.486 64.1074 46.9726 63.7815 48.092 63.1748C49.8649 62.2723 52.4605 62.512 53.114 64.6729C53.9254 68.4329 51.1946 71.867 49.9588 75.26C48.6742 78.1886 47.4271 81.1584 46.7435 84.293C45.1659 91.4385 50.4884 86.3116 52.652 83.7912C59.4696 76.0278 69.7504 56.2428 79.2049 53.1344C81.5976 52.6026 83.9903 54.2542 84.4899 56.6173C85.8233 63.4145 80.1402 71.339 77.9615 77.7018C76.4478 81.6191 74.75 85.7012 74.8589 89.9705C75.3622 93.899 79.0471 93.0714 81.2482 90.9442C84.9556 87.4201 86.6422 82.5141 88.6555 77.9827C96.9869 58.0105 102.422 35.9261 117.631 19.7438C119.911 17.2796 122.255 14.864 124.749 12.6095C125.955 11.7519 127.747 9.18659 129.009 10.8194C129.407 11.486 128.979 12.2201 128.344 12.5309C127.029 13.4859 125.869 14.6319 124.678 15.7366C119.393 20.8598 114.427 26.3725 110.603 32.6829C103.793 43.5809 99.65 55.6361 95.1876 67.579C91.7319 74.9192 86.6422 95.8764 76.6356 94.9776V94.9701Z" fill="#4D3912"/>
<path d="M176.518 81.0498C171.728 80.1286 173.449 75.1851 174.775 72.0468C176.42 67.2607 179.279 62.7741 180.011 57.7258C180.015 57.782 180.018 57.827 180.022 57.8794C180.034 57.591 179.936 57.3101 179.688 57.1454L179.71 57.1865C177.543 57.3701 175.954 59.471 174.298 60.7219C171.289 63.2535 168.716 66.2533 166.845 69.7211C164.967 73.0093 163.686 76.6307 161.279 79.5069C160.02 80.1585 159.074 78.5931 159.949 77.6007C161.684 74.4623 163.022 71.0918 164.513 67.8262C165.504 65.1297 168.453 60.1601 166.736 57.5086C160.828 59.28 154.345 70.0545 151.396 75.3462C151.054 76.6981 149.154 76.8142 149.045 75.29C150.13 70.9083 154.762 66.5978 154.33 61.8529C148.676 66.2795 145.987 73.4699 140.161 77.6456C138.636 78.5931 136.961 79.4208 135.165 79.6792C132.003 80.0799 129.114 78.3534 129.884 74.8631C130.812 70.5376 134.249 67.403 136.792 63.9613C138.227 62.1862 140.06 59.2725 136.649 58.5722C132.975 63.6654 124.404 66.1035 118.491 64.1823C116.117 70.1406 111.647 76.7318 105.059 78.3235C97.4151 79.4095 96.863 70.5825 99.7327 65.5267C101.307 62.4071 103.429 59.4073 106.449 57.5423C108.105 56.5349 110.551 55.5163 112.256 56.9094C113.154 48.2584 122.698 49.9175 119.164 62.0364C124.024 63.6093 131.221 61.6806 134.482 57.7034C132.701 56.9244 130.827 55.9694 129.809 54.2505C128.321 51.6963 130.812 49.0898 133.347 48.7415C138.035 47.97 139.729 53.0034 137.791 56.5986C143.917 58.6733 139.447 64.5905 136.724 67.6427C134.872 70.223 131.533 73.3051 132.175 76.7168C133.689 78.2373 136.198 77.2149 137.847 76.3948C141.701 74.3837 143.91 70.4364 146.472 67.1034C148.65 64.4219 150.814 61.4147 153.8 59.6096C155.964 58.7894 156.899 61.4409 156.636 63.1524C159.006 60.3661 162.849 55.7372 166.609 55.2316C170.26 55.5013 169.696 60.3249 168.908 62.8266C171.511 60.1376 174.253 57.4075 177.487 55.4863C179.575 54.1943 182.31 55.1942 182.257 57.8457C181.874 61.8641 179.771 65.4968 178.332 69.2156C177.355 72.0206 175.624 74.7994 175.582 77.7729C176.814 80.3495 179.977 77.6793 180.631 75.9004C181.145 74.8855 181.525 73.8145 181.806 72.7134C182.212 71.3015 184.342 71.897 183.966 73.3089C183.087 76.8666 180.826 81.3682 176.529 81.0461L176.518 81.0498ZM104.045 76.2075C110.059 75.2188 114.412 68.5003 116.463 63.2123C114.705 62.085 113.158 60.456 112.504 58.4449C112.185 58.9168 111.512 59.0928 111.013 58.7857C110.663 58.4224 110.171 58.4486 109.709 58.546C104.676 60.1264 100.878 66.3843 100.315 71.4289C100.135 73.6572 101.438 76.4921 104.045 76.2113V76.2075ZM117.128 60.9503C117.56 58.6883 118.379 55.6511 116.651 53.7823C116.531 53.7374 116.395 53.7449 116.271 53.7673C116.294 53.7636 116.316 53.7561 116.339 53.7524C116.339 53.7524 116.339 53.7524 116.418 53.7374C115.111 54.0295 114.641 55.6099 114.506 56.7821C114.483 58.5198 115.843 59.9429 117.132 60.954L117.128 60.9503ZM135.691 55.7784C137.637 52.2843 134.974 49.0599 131.77 52.0746C131.011 53.992 134.365 55.1118 135.691 55.7784Z" fill="#4D3912"/>
</g>
<defs>
<clipPath id="clip0_2026_462">
<rect width="185" height="96" fill="white"/>
</clipPath>
</defs>
</svg>
