<?xml version="1.0" encoding="UTF-8"?>
<svg id="Layer_2" data-name="Layer 2" xmlns="http://www.w3.org/2000/svg" viewBox="0 0 8.02 25.51">
  <g id="Layer_2-2" data-name="Layer 2">
    <path d="M4.17,12.22c1.07-.53,2.28-1.12,2.28-2.41,0-1.19-.63-1.82-1.13-2.32-.46-.46-.82-.82-.83-1.56h3.54L3.95,0,0,5.93h3.48c.02,1.16.63,1.77,1.13,2.27.47.47.84.83.84,1.61,0,.62-.68,1-1.72,1.51-1.07.53-2.28,1.12-2.28,2.41s1.21,1.89,2.28,2.41c1.04.51,1.72.89,1.72,1.51s-.68,1-1.72,1.51c-1.07.52-2.28,1.12-2.28,2.41,0,1.19.63,1.82,1.13,2.32.47.47.84.83.84,1.61h1c0-1.19-.63-1.82-1.13-2.32-.47-.47-.84-.83-.84-1.61,0-.62.68-1,1.72-1.51,1.07-.52,2.28-1.12,2.28-2.41s-1.21-1.89-2.28-2.41c-1.04-.51-1.72-.89-1.72-1.51s.68-1,1.72-1.51Z"/>
  </g>
</svg>